<?xml version="1.0" encoding="utf-8" standalone="no"?>
<!DOCTYPE svg PUBLIC "-//W3C//DTD SVG 1.1//EN"
  "http://www.w3.org/Graphics/SVG/1.1/DTD/svg11.dtd">
<!-- Created with matplotlib (https://matplotlib.org/) -->
<svg height="707.76pt" version="1.1" viewBox="0 0 1382.4 707.76" width="1382.4pt" xmlns="http://www.w3.org/2000/svg" xmlns:xlink="http://www.w3.org/1999/xlink">
 <metadata>
  <rdf:RDF xmlns:cc="http://creativecommons.org/ns#" xmlns:dc="http://purl.org/dc/elements/1.1/" xmlns:rdf="http://www.w3.org/1999/02/22-rdf-syntax-ns#">
   <cc:Work>
    <dc:type rdf:resource="http://purl.org/dc/dcmitype/StillImage"/>
    <dc:date>2021-06-21T01:52:33.785036</dc:date>
    <dc:format>image/svg+xml</dc:format>
    <dc:creator>
     <cc:Agent>
      <dc:title>Matplotlib v3.3.2, https://matplotlib.org/</dc:title>
     </cc:Agent>
    </dc:creator>
   </cc:Work>
  </rdf:RDF>
 </metadata>
 <defs>
  <style type="text/css">*{stroke-linecap:butt;stroke-linejoin:round;}</style>
 </defs>
 <g id="figure_1">
  <g id="patch_1">
   <path d="M 0 707.76 
L 1382.4 707.76 
L 1382.4 0 
L 0 0 
z
" style="fill:#ffffff;"/>
  </g>
  <g id="axes_1">
   <g id="patch_2">
    <path d="M 172.8 629.9064 
L 1244.16 629.9064 
L 1244.16 84.9312 
L 172.8 84.9312 
z
" style="fill:#ffffff;"/>
   </g>
   <g id="matplotlib.axis_1">
    <g id="xtick_1">
     <g id="line2d_1">
      <path clip-path="url(#p4c67a10fc6)" d="M 262.08 629.9064 
L 262.08 84.9312 
" style="fill:none;stroke:#b0b0b0;stroke-linecap:square;stroke-width:0.8;"/>
     </g>
     <g id="line2d_2">
      <defs>
       <path d="M 0 0 
L 0 3.5 
" id="m7897548867" style="stroke:#000000;stroke-width:0.8;"/>
      </defs>
      <g>
       <use style="stroke:#000000;stroke-width:0.8;" x="262.08" xlink:href="#m7897548867" y="629.9064"/>
      </g>
     </g>
     <g id="text_1">
      <!-- 0.4 -->
      <g transform="translate(254.128438 644.504838)scale(0.1 -0.1)">
       <defs>
        <path d="M 31.78125 66.40625 
Q 24.171875 66.40625 20.328125 58.90625 
Q 16.5 51.421875 16.5 36.375 
Q 16.5 21.390625 20.328125 13.890625 
Q 24.171875 6.390625 31.78125 6.390625 
Q 39.453125 6.390625 43.28125 13.890625 
Q 47.125 21.390625 47.125 36.375 
Q 47.125 51.421875 43.28125 58.90625 
Q 39.453125 66.40625 31.78125 66.40625 
z
M 31.78125 74.21875 
Q 44.046875 74.21875 50.515625 64.515625 
Q 56.984375 54.828125 56.984375 36.375 
Q 56.984375 17.96875 50.515625 8.265625 
Q 44.046875 -1.421875 31.78125 -1.421875 
Q 19.53125 -1.421875 13.0625 8.265625 
Q 6.59375 17.96875 6.59375 36.375 
Q 6.59375 54.828125 13.0625 64.515625 
Q 19.53125 74.21875 31.78125 74.21875 
z
" id="DejaVuSans-48"/>
        <path d="M 10.6875 12.40625 
L 21 12.40625 
L 21 0 
L 10.6875 0 
z
" id="DejaVuSans-46"/>
        <path d="M 37.796875 64.3125 
L 12.890625 25.390625 
L 37.796875 25.390625 
z
M 35.203125 72.90625 
L 47.609375 72.90625 
L 47.609375 25.390625 
L 58.015625 25.390625 
L 58.015625 17.1875 
L 47.609375 17.1875 
L 47.609375 0 
L 37.796875 0 
L 37.796875 17.1875 
L 4.890625 17.1875 
L 4.890625 26.703125 
z
" id="DejaVuSans-52"/>
       </defs>
       <use xlink:href="#DejaVuSans-48"/>
       <use x="63.623047" xlink:href="#DejaVuSans-46"/>
       <use x="95.410156" xlink:href="#DejaVuSans-52"/>
      </g>
     </g>
    </g>
    <g id="xtick_2">
     <g id="line2d_3">
      <path clip-path="url(#p4c67a10fc6)" d="M 440.64 629.9064 
L 440.64 84.9312 
" style="fill:none;stroke:#b0b0b0;stroke-linecap:square;stroke-width:0.8;"/>
     </g>
     <g id="line2d_4">
      <g>
       <use style="stroke:#000000;stroke-width:0.8;" x="440.64" xlink:href="#m7897548867" y="629.9064"/>
      </g>
     </g>
     <g id="text_2">
      <!-- 0.6 -->
      <g transform="translate(432.688438 644.504838)scale(0.1 -0.1)">
       <defs>
        <path d="M 33.015625 40.375 
Q 26.375 40.375 22.484375 35.828125 
Q 18.609375 31.296875 18.609375 23.390625 
Q 18.609375 15.53125 22.484375 10.953125 
Q 26.375 6.390625 33.015625 6.390625 
Q 39.65625 6.390625 43.53125 10.953125 
Q 47.40625 15.53125 47.40625 23.390625 
Q 47.40625 31.296875 43.53125 35.828125 
Q 39.65625 40.375 33.015625 40.375 
z
M 52.59375 71.296875 
L 52.59375 62.3125 
Q 48.875 64.0625 45.09375 64.984375 
Q 41.3125 65.921875 37.59375 65.921875 
Q 27.828125 65.921875 22.671875 59.328125 
Q 17.53125 52.734375 16.796875 39.40625 
Q 19.671875 43.65625 24.015625 45.921875 
Q 28.375 48.1875 33.59375 48.1875 
Q 44.578125 48.1875 50.953125 41.515625 
Q 57.328125 34.859375 57.328125 23.390625 
Q 57.328125 12.15625 50.6875 5.359375 
Q 44.046875 -1.421875 33.015625 -1.421875 
Q 20.359375 -1.421875 13.671875 8.265625 
Q 6.984375 17.96875 6.984375 36.375 
Q 6.984375 53.65625 15.1875 63.9375 
Q 23.390625 74.21875 37.203125 74.21875 
Q 40.921875 74.21875 44.703125 73.484375 
Q 48.484375 72.75 52.59375 71.296875 
z
" id="DejaVuSans-54"/>
       </defs>
       <use xlink:href="#DejaVuSans-48"/>
       <use x="63.623047" xlink:href="#DejaVuSans-46"/>
       <use x="95.410156" xlink:href="#DejaVuSans-54"/>
      </g>
     </g>
    </g>
    <g id="xtick_3">
     <g id="line2d_5">
      <path clip-path="url(#p4c67a10fc6)" d="M 619.2 629.9064 
L 619.2 84.9312 
" style="fill:none;stroke:#b0b0b0;stroke-linecap:square;stroke-width:0.8;"/>
     </g>
     <g id="line2d_6">
      <g>
       <use style="stroke:#000000;stroke-width:0.8;" x="619.2" xlink:href="#m7897548867" y="629.9064"/>
      </g>
     </g>
     <g id="text_3">
      <!-- 0.8 -->
      <g transform="translate(611.248438 644.504838)scale(0.1 -0.1)">
       <defs>
        <path d="M 31.78125 34.625 
Q 24.75 34.625 20.71875 30.859375 
Q 16.703125 27.09375 16.703125 20.515625 
Q 16.703125 13.921875 20.71875 10.15625 
Q 24.75 6.390625 31.78125 6.390625 
Q 38.8125 6.390625 42.859375 10.171875 
Q 46.921875 13.96875 46.921875 20.515625 
Q 46.921875 27.09375 42.890625 30.859375 
Q 38.875 34.625 31.78125 34.625 
z
M 21.921875 38.8125 
Q 15.578125 40.375 12.03125 44.71875 
Q 8.5 49.078125 8.5 55.328125 
Q 8.5 64.0625 14.71875 69.140625 
Q 20.953125 74.21875 31.78125 74.21875 
Q 42.671875 74.21875 48.875 69.140625 
Q 55.078125 64.0625 55.078125 55.328125 
Q 55.078125 49.078125 51.53125 44.71875 
Q 48 40.375 41.703125 38.8125 
Q 48.828125 37.15625 52.796875 32.3125 
Q 56.78125 27.484375 56.78125 20.515625 
Q 56.78125 9.90625 50.3125 4.234375 
Q 43.84375 -1.421875 31.78125 -1.421875 
Q 19.734375 -1.421875 13.25 4.234375 
Q 6.78125 9.90625 6.78125 20.515625 
Q 6.78125 27.484375 10.78125 32.3125 
Q 14.796875 37.15625 21.921875 38.8125 
z
M 18.3125 54.390625 
Q 18.3125 48.734375 21.84375 45.5625 
Q 25.390625 42.390625 31.78125 42.390625 
Q 38.140625 42.390625 41.71875 45.5625 
Q 45.3125 48.734375 45.3125 54.390625 
Q 45.3125 60.0625 41.71875 63.234375 
Q 38.140625 66.40625 31.78125 66.40625 
Q 25.390625 66.40625 21.84375 63.234375 
Q 18.3125 60.0625 18.3125 54.390625 
z
" id="DejaVuSans-56"/>
       </defs>
       <use xlink:href="#DejaVuSans-48"/>
       <use x="63.623047" xlink:href="#DejaVuSans-46"/>
       <use x="95.410156" xlink:href="#DejaVuSans-56"/>
      </g>
     </g>
    </g>
    <g id="xtick_4">
     <g id="line2d_7">
      <path clip-path="url(#p4c67a10fc6)" d="M 797.76 629.9064 
L 797.76 84.9312 
" style="fill:none;stroke:#b0b0b0;stroke-linecap:square;stroke-width:0.8;"/>
     </g>
     <g id="line2d_8">
      <g>
       <use style="stroke:#000000;stroke-width:0.8;" x="797.76" xlink:href="#m7897548867" y="629.9064"/>
      </g>
     </g>
     <g id="text_4">
      <!-- 1.0 -->
      <g transform="translate(789.808437 644.504838)scale(0.1 -0.1)">
       <defs>
        <path d="M 12.40625 8.296875 
L 28.515625 8.296875 
L 28.515625 63.921875 
L 10.984375 60.40625 
L 10.984375 69.390625 
L 28.421875 72.90625 
L 38.28125 72.90625 
L 38.28125 8.296875 
L 54.390625 8.296875 
L 54.390625 0 
L 12.40625 0 
z
" id="DejaVuSans-49"/>
       </defs>
       <use xlink:href="#DejaVuSans-49"/>
       <use x="63.623047" xlink:href="#DejaVuSans-46"/>
       <use x="95.410156" xlink:href="#DejaVuSans-48"/>
      </g>
     </g>
    </g>
    <g id="xtick_5">
     <g id="line2d_9">
      <path clip-path="url(#p4c67a10fc6)" d="M 976.32 629.9064 
L 976.32 84.9312 
" style="fill:none;stroke:#b0b0b0;stroke-linecap:square;stroke-width:0.8;"/>
     </g>
     <g id="line2d_10">
      <g>
       <use style="stroke:#000000;stroke-width:0.8;" x="976.32" xlink:href="#m7897548867" y="629.9064"/>
      </g>
     </g>
     <g id="text_5">
      <!-- 1.2 -->
      <g transform="translate(968.368437 644.504838)scale(0.1 -0.1)">
       <defs>
        <path d="M 19.1875 8.296875 
L 53.609375 8.296875 
L 53.609375 0 
L 7.328125 0 
L 7.328125 8.296875 
Q 12.9375 14.109375 22.625 23.890625 
Q 32.328125 33.6875 34.8125 36.53125 
Q 39.546875 41.84375 41.421875 45.53125 
Q 43.3125 49.21875 43.3125 52.78125 
Q 43.3125 58.59375 39.234375 62.25 
Q 35.15625 65.921875 28.609375 65.921875 
Q 23.96875 65.921875 18.8125 64.3125 
Q 13.671875 62.703125 7.8125 59.421875 
L 7.8125 69.390625 
Q 13.765625 71.78125 18.9375 73 
Q 24.125 74.21875 28.421875 74.21875 
Q 39.75 74.21875 46.484375 68.546875 
Q 53.21875 62.890625 53.21875 53.421875 
Q 53.21875 48.921875 51.53125 44.890625 
Q 49.859375 40.875 45.40625 35.40625 
Q 44.1875 33.984375 37.640625 27.21875 
Q 31.109375 20.453125 19.1875 8.296875 
z
" id="DejaVuSans-50"/>
       </defs>
       <use xlink:href="#DejaVuSans-49"/>
       <use x="63.623047" xlink:href="#DejaVuSans-46"/>
       <use x="95.410156" xlink:href="#DejaVuSans-50"/>
      </g>
     </g>
    </g>
    <g id="xtick_6">
     <g id="line2d_11">
      <path clip-path="url(#p4c67a10fc6)" d="M 1154.88 629.9064 
L 1154.88 84.9312 
" style="fill:none;stroke:#b0b0b0;stroke-linecap:square;stroke-width:0.8;"/>
     </g>
     <g id="line2d_12">
      <g>
       <use style="stroke:#000000;stroke-width:0.8;" x="1154.88" xlink:href="#m7897548867" y="629.9064"/>
      </g>
     </g>
     <g id="text_6">
      <!-- 1.4 -->
      <g transform="translate(1146.928438 644.504838)scale(0.1 -0.1)">
       <use xlink:href="#DejaVuSans-49"/>
       <use x="63.623047" xlink:href="#DejaVuSans-46"/>
       <use x="95.410156" xlink:href="#DejaVuSans-52"/>
      </g>
     </g>
    </g>
    <g id="text_7">
     <!-- Distancia 	$(\AA$) -->
     <g transform="translate(666.78 659.204838)scale(0.1 -0.1)">
      <defs>
       <path d="M 19.671875 64.796875 
L 19.671875 8.109375 
L 31.59375 8.109375 
Q 46.6875 8.109375 53.6875 14.9375 
Q 60.6875 21.78125 60.6875 36.53125 
Q 60.6875 51.171875 53.6875 57.984375 
Q 46.6875 64.796875 31.59375 64.796875 
z
M 9.8125 72.90625 
L 30.078125 72.90625 
Q 51.265625 72.90625 61.171875 64.09375 
Q 71.09375 55.28125 71.09375 36.53125 
Q 71.09375 17.671875 61.125 8.828125 
Q 51.171875 0 30.078125 0 
L 9.8125 0 
z
" id="DejaVuSans-68"/>
       <path d="M 9.421875 54.6875 
L 18.40625 54.6875 
L 18.40625 0 
L 9.421875 0 
z
M 9.421875 75.984375 
L 18.40625 75.984375 
L 18.40625 64.59375 
L 9.421875 64.59375 
z
" id="DejaVuSans-105"/>
       <path d="M 44.28125 53.078125 
L 44.28125 44.578125 
Q 40.484375 46.53125 36.375 47.5 
Q 32.28125 48.484375 27.875 48.484375 
Q 21.1875 48.484375 17.84375 46.4375 
Q 14.5 44.390625 14.5 40.28125 
Q 14.5 37.15625 16.890625 35.375 
Q 19.28125 33.59375 26.515625 31.984375 
L 29.59375 31.296875 
Q 39.15625 29.25 43.1875 25.515625 
Q 47.21875 21.78125 47.21875 15.09375 
Q 47.21875 7.46875 41.1875 3.015625 
Q 35.15625 -1.421875 24.609375 -1.421875 
Q 20.21875 -1.421875 15.453125 -0.5625 
Q 10.6875 0.296875 5.421875 2 
L 5.421875 11.28125 
Q 10.40625 8.6875 15.234375 7.390625 
Q 20.0625 6.109375 24.8125 6.109375 
Q 31.15625 6.109375 34.5625 8.28125 
Q 37.984375 10.453125 37.984375 14.40625 
Q 37.984375 18.0625 35.515625 20.015625 
Q 33.0625 21.96875 24.703125 23.78125 
L 21.578125 24.515625 
Q 13.234375 26.265625 9.515625 29.90625 
Q 5.8125 33.546875 5.8125 39.890625 
Q 5.8125 47.609375 11.28125 51.796875 
Q 16.75 56 26.8125 56 
Q 31.78125 56 36.171875 55.265625 
Q 40.578125 54.546875 44.28125 53.078125 
z
" id="DejaVuSans-115"/>
       <path d="M 18.3125 70.21875 
L 18.3125 54.6875 
L 36.8125 54.6875 
L 36.8125 47.703125 
L 18.3125 47.703125 
L 18.3125 18.015625 
Q 18.3125 11.328125 20.140625 9.421875 
Q 21.96875 7.515625 27.59375 7.515625 
L 36.8125 7.515625 
L 36.8125 0 
L 27.59375 0 
Q 17.1875 0 13.234375 3.875 
Q 9.28125 7.765625 9.28125 18.015625 
L 9.28125 47.703125 
L 2.6875 47.703125 
L 2.6875 54.6875 
L 9.28125 54.6875 
L 9.28125 70.21875 
z
" id="DejaVuSans-116"/>
       <path d="M 34.28125 27.484375 
Q 23.390625 27.484375 19.1875 25 
Q 14.984375 22.515625 14.984375 16.5 
Q 14.984375 11.71875 18.140625 8.90625 
Q 21.296875 6.109375 26.703125 6.109375 
Q 34.1875 6.109375 38.703125 11.40625 
Q 43.21875 16.703125 43.21875 25.484375 
L 43.21875 27.484375 
z
M 52.203125 31.203125 
L 52.203125 0 
L 43.21875 0 
L 43.21875 8.296875 
Q 40.140625 3.328125 35.546875 0.953125 
Q 30.953125 -1.421875 24.3125 -1.421875 
Q 15.921875 -1.421875 10.953125 3.296875 
Q 6 8.015625 6 15.921875 
Q 6 25.140625 12.171875 29.828125 
Q 18.359375 34.515625 30.609375 34.515625 
L 43.21875 34.515625 
L 43.21875 35.40625 
Q 43.21875 41.609375 39.140625 45 
Q 35.0625 48.390625 27.6875 48.390625 
Q 23 48.390625 18.546875 47.265625 
Q 14.109375 46.140625 10.015625 43.890625 
L 10.015625 52.203125 
Q 14.9375 54.109375 19.578125 55.046875 
Q 24.21875 56 28.609375 56 
Q 40.484375 56 46.34375 49.84375 
Q 52.203125 43.703125 52.203125 31.203125 
z
" id="DejaVuSans-97"/>
       <path d="M 54.890625 33.015625 
L 54.890625 0 
L 45.90625 0 
L 45.90625 32.71875 
Q 45.90625 40.484375 42.875 44.328125 
Q 39.84375 48.1875 33.796875 48.1875 
Q 26.515625 48.1875 22.3125 43.546875 
Q 18.109375 38.921875 18.109375 30.90625 
L 18.109375 0 
L 9.078125 0 
L 9.078125 54.6875 
L 18.109375 54.6875 
L 18.109375 46.1875 
Q 21.34375 51.125 25.703125 53.5625 
Q 30.078125 56 35.796875 56 
Q 45.21875 56 50.046875 50.171875 
Q 54.890625 44.34375 54.890625 33.015625 
z
" id="DejaVuSans-110"/>
       <path d="M 48.78125 52.59375 
L 48.78125 44.1875 
Q 44.96875 46.296875 41.140625 47.34375 
Q 37.3125 48.390625 33.40625 48.390625 
Q 24.65625 48.390625 19.8125 42.84375 
Q 14.984375 37.3125 14.984375 27.296875 
Q 14.984375 17.28125 19.8125 11.734375 
Q 24.65625 6.203125 33.40625 6.203125 
Q 37.3125 6.203125 41.140625 7.25 
Q 44.96875 8.296875 48.78125 10.40625 
L 48.78125 2.09375 
Q 45.015625 0.34375 40.984375 -0.53125 
Q 36.96875 -1.421875 32.421875 -1.421875 
Q 20.0625 -1.421875 12.78125 6.34375 
Q 5.515625 14.109375 5.515625 27.296875 
Q 5.515625 40.671875 12.859375 48.328125 
Q 20.21875 56 33.015625 56 
Q 37.15625 56 41.109375 55.140625 
Q 45.0625 54.296875 48.78125 52.59375 
z
" id="DejaVuSans-99"/>
       <path id="DejaVuSans-32"/>
       <path d="M 31 75.875 
Q 24.46875 64.65625 21.28125 53.65625 
Q 18.109375 42.671875 18.109375 31.390625 
Q 18.109375 20.125 21.3125 9.0625 
Q 24.515625 -2 31 -13.1875 
L 23.1875 -13.1875 
Q 15.875 -1.703125 12.234375 9.375 
Q 8.59375 20.453125 8.59375 31.390625 
Q 8.59375 42.28125 12.203125 53.3125 
Q 15.828125 64.359375 23.1875 75.875 
z
" id="DejaVuSans-40"/>
       <path d="M 49.8125 79.390625 
Q 49.8125 82.46875 47.625 84.640625 
Q 45.453125 86.8125 42.390625 86.8125 
Q 39.265625 86.8125 37.140625 84.6875 
Q 35.015625 82.5625 35.015625 79.390625 
Q 35.015625 76.3125 37.140625 74.15625 
Q 39.265625 72.015625 42.390625 72.015625 
Q 45.453125 72.015625 47.625 74.15625 
Q 49.8125 76.3125 49.8125 79.390625 
z
M 34.421875 68.703125 
Q 31.78125 70.515625 30.390625 73.265625 
Q 29 76.03125 29 79.390625 
Q 29 84.96875 32.90625 88.890625 
Q 36.8125 92.828125 42.390625 92.828125 
Q 47.953125 92.828125 51.875 88.890625 
Q 55.8125 84.96875 55.8125 79.390625 
Q 55.8125 75.53125 54.03125 72.546875 
Q 52.25 69.578125 48.875 67.828125 
L 61.53125 0 
L 51.21875 0 
L 48.1875 18.703125 
L 15.375 18.703125 
L 5.078125 0 
L -5.328125 0 
z
M 40.375 63.1875 
L 19.921875 26.90625 
L 46.6875 26.90625 
z
" id="DejaVuSans-Oblique-197"/>
       <path d="M 8.015625 75.875 
L 15.828125 75.875 
Q 23.140625 64.359375 26.78125 53.3125 
Q 30.421875 42.28125 30.421875 31.390625 
Q 30.421875 20.453125 26.78125 9.375 
Q 23.140625 -1.703125 15.828125 -13.1875 
L 8.015625 -13.1875 
Q 14.5 -2 17.703125 9.0625 
Q 20.90625 20.125 20.90625 31.390625 
Q 20.90625 42.671875 17.703125 53.65625 
Q 14.5 64.65625 8.015625 75.875 
z
" id="DejaVuSans-41"/>
      </defs>
      <use transform="translate(0 0.171875)" xlink:href="#DejaVuSans-68"/>
      <use transform="translate(77.001953 0.171875)" xlink:href="#DejaVuSans-105"/>
      <use transform="translate(104.785156 0.171875)" xlink:href="#DejaVuSans-115"/>
      <use transform="translate(156.884766 0.171875)" xlink:href="#DejaVuSans-116"/>
      <use transform="translate(196.09375 0.171875)" xlink:href="#DejaVuSans-97"/>
      <use transform="translate(257.373047 0.171875)" xlink:href="#DejaVuSans-110"/>
      <use transform="translate(320.751953 0.171875)" xlink:href="#DejaVuSans-99"/>
      <use transform="translate(375.732422 0.171875)" xlink:href="#DejaVuSans-105"/>
      <use transform="translate(403.515625 0.171875)" xlink:href="#DejaVuSans-97"/>
      <use transform="translate(464.794922 0.171875)" xlink:href="#DejaVuSans-32"/>
      <use transform="translate(496.582031 0.171875)" xlink:href="#DejaVuSans-32"/>
      <use transform="translate(528.369141 0.171875)" xlink:href="#DejaVuSans-32"/>
      <use transform="translate(560.15625 0.171875)" xlink:href="#DejaVuSans-32"/>
      <use transform="translate(591.943359 0.171875)" xlink:href="#DejaVuSans-32"/>
      <use transform="translate(623.730469 0.171875)" xlink:href="#DejaVuSans-32"/>
      <use transform="translate(655.517578 0.171875)" xlink:href="#DejaVuSans-32"/>
      <use transform="translate(687.304688 0.171875)" xlink:href="#DejaVuSans-40"/>
      <use transform="translate(726.318359 0.171875)" xlink:href="#DejaVuSans-Oblique-197"/>
      <use transform="translate(794.726562 0.171875)" xlink:href="#DejaVuSans-41"/>
     </g>
    </g>
   </g>
   <g id="matplotlib.axis_2">
    <g id="ytick_1">
     <g id="line2d_13">
      <path clip-path="url(#p4c67a10fc6)" d="M 172.8 617.889846 
L 1244.16 617.889846 
" style="fill:none;stroke:#b0b0b0;stroke-linecap:square;stroke-width:0.8;"/>
     </g>
     <g id="line2d_14">
      <defs>
       <path d="M 0 0 
L -3.5 0 
" id="mab7d12e6d9" style="stroke:#000000;stroke-width:0.8;"/>
      </defs>
      <g>
       <use style="stroke:#000000;stroke-width:0.8;" x="172.8" xlink:href="#mab7d12e6d9" y="617.889846"/>
      </g>
     </g>
     <g id="text_8">
      <!-- −5 -->
      <g transform="translate(151.057812 621.689065)scale(0.1 -0.1)">
       <defs>
        <path d="M 10.59375 35.5 
L 73.1875 35.5 
L 73.1875 27.203125 
L 10.59375 27.203125 
z
" id="DejaVuSans-8722"/>
        <path d="M 10.796875 72.90625 
L 49.515625 72.90625 
L 49.515625 64.59375 
L 19.828125 64.59375 
L 19.828125 46.734375 
Q 21.96875 47.46875 24.109375 47.828125 
Q 26.265625 48.1875 28.421875 48.1875 
Q 40.625 48.1875 47.75 41.5 
Q 54.890625 34.8125 54.890625 23.390625 
Q 54.890625 11.625 47.5625 5.09375 
Q 40.234375 -1.421875 26.90625 -1.421875 
Q 22.3125 -1.421875 17.546875 -0.640625 
Q 12.796875 0.140625 7.71875 1.703125 
L 7.71875 11.625 
Q 12.109375 9.234375 16.796875 8.0625 
Q 21.484375 6.890625 26.703125 6.890625 
Q 35.15625 6.890625 40.078125 11.328125 
Q 45.015625 15.765625 45.015625 23.390625 
Q 45.015625 31 40.078125 35.4375 
Q 35.15625 39.890625 26.703125 39.890625 
Q 22.75 39.890625 18.8125 39.015625 
Q 14.890625 38.140625 10.796875 36.28125 
z
" id="DejaVuSans-53"/>
       </defs>
       <use xlink:href="#DejaVuSans-8722"/>
       <use x="83.789062" xlink:href="#DejaVuSans-53"/>
      </g>
     </g>
    </g>
    <g id="ytick_2">
     <g id="line2d_15">
      <path clip-path="url(#p4c67a10fc6)" d="M 172.8 511.860811 
L 1244.16 511.860811 
" style="fill:none;stroke:#b0b0b0;stroke-linecap:square;stroke-width:0.8;"/>
     </g>
     <g id="line2d_16">
      <g>
       <use style="stroke:#000000;stroke-width:0.8;" x="172.8" xlink:href="#mab7d12e6d9" y="511.860811"/>
      </g>
     </g>
     <g id="text_9">
      <!-- 0 -->
      <g transform="translate(159.4375 515.660029)scale(0.1 -0.1)">
       <use xlink:href="#DejaVuSans-48"/>
      </g>
     </g>
    </g>
    <g id="ytick_3">
     <g id="line2d_17">
      <path clip-path="url(#p4c67a10fc6)" d="M 172.8 405.831776 
L 1244.16 405.831776 
" style="fill:none;stroke:#b0b0b0;stroke-linecap:square;stroke-width:0.8;"/>
     </g>
     <g id="line2d_18">
      <g>
       <use style="stroke:#000000;stroke-width:0.8;" x="172.8" xlink:href="#mab7d12e6d9" y="405.831776"/>
      </g>
     </g>
     <g id="text_10">
      <!-- 5 -->
      <g transform="translate(159.4375 409.630994)scale(0.1 -0.1)">
       <use xlink:href="#DejaVuSans-53"/>
      </g>
     </g>
    </g>
    <g id="ytick_4">
     <g id="line2d_19">
      <path clip-path="url(#p4c67a10fc6)" d="M 172.8 299.80274 
L 1244.16 299.80274 
" style="fill:none;stroke:#b0b0b0;stroke-linecap:square;stroke-width:0.8;"/>
     </g>
     <g id="line2d_20">
      <g>
       <use style="stroke:#000000;stroke-width:0.8;" x="172.8" xlink:href="#mab7d12e6d9" y="299.80274"/>
      </g>
     </g>
     <g id="text_11">
      <!-- 10 -->
      <g transform="translate(153.075 303.601959)scale(0.1 -0.1)">
       <use xlink:href="#DejaVuSans-49"/>
       <use x="63.623047" xlink:href="#DejaVuSans-48"/>
      </g>
     </g>
    </g>
    <g id="ytick_5">
     <g id="line2d_21">
      <path clip-path="url(#p4c67a10fc6)" d="M 172.8 193.773705 
L 1244.16 193.773705 
" style="fill:none;stroke:#b0b0b0;stroke-linecap:square;stroke-width:0.8;"/>
     </g>
     <g id="line2d_22">
      <g>
       <use style="stroke:#000000;stroke-width:0.8;" x="172.8" xlink:href="#mab7d12e6d9" y="193.773705"/>
      </g>
     </g>
     <g id="text_12">
      <!-- 15 -->
      <g transform="translate(153.075 197.572924)scale(0.1 -0.1)">
       <use xlink:href="#DejaVuSans-49"/>
       <use x="63.623047" xlink:href="#DejaVuSans-53"/>
      </g>
     </g>
    </g>
    <g id="ytick_6">
     <g id="line2d_23">
      <path clip-path="url(#p4c67a10fc6)" d="M 172.8 87.74467 
L 1244.16 87.74467 
" style="fill:none;stroke:#b0b0b0;stroke-linecap:square;stroke-width:0.8;"/>
     </g>
     <g id="line2d_24">
      <g>
       <use style="stroke:#000000;stroke-width:0.8;" x="172.8" xlink:href="#mab7d12e6d9" y="87.74467"/>
      </g>
     </g>
     <g id="text_13">
      <!-- 20 -->
      <g transform="translate(153.075 91.543889)scale(0.1 -0.1)">
       <use xlink:href="#DejaVuSans-50"/>
       <use x="63.623047" xlink:href="#DejaVuSans-48"/>
      </g>
     </g>
    </g>
    <g id="text_14">
     <!-- Energía (eV) -->
     <g transform="translate(144.978125 388.4063)rotate(-90)scale(0.1 -0.1)">
      <defs>
       <path d="M 9.8125 72.90625 
L 55.90625 72.90625 
L 55.90625 64.59375 
L 19.671875 64.59375 
L 19.671875 43.015625 
L 54.390625 43.015625 
L 54.390625 34.71875 
L 19.671875 34.71875 
L 19.671875 8.296875 
L 56.78125 8.296875 
L 56.78125 0 
L 9.8125 0 
z
" id="DejaVuSans-69"/>
       <path d="M 56.203125 29.59375 
L 56.203125 25.203125 
L 14.890625 25.203125 
Q 15.484375 15.921875 20.484375 11.0625 
Q 25.484375 6.203125 34.421875 6.203125 
Q 39.59375 6.203125 44.453125 7.46875 
Q 49.3125 8.734375 54.109375 11.28125 
L 54.109375 2.78125 
Q 49.265625 0.734375 44.1875 -0.34375 
Q 39.109375 -1.421875 33.890625 -1.421875 
Q 20.796875 -1.421875 13.15625 6.1875 
Q 5.515625 13.8125 5.515625 26.8125 
Q 5.515625 40.234375 12.765625 48.109375 
Q 20.015625 56 32.328125 56 
Q 43.359375 56 49.78125 48.890625 
Q 56.203125 41.796875 56.203125 29.59375 
z
M 47.21875 32.234375 
Q 47.125 39.59375 43.09375 43.984375 
Q 39.0625 48.390625 32.421875 48.390625 
Q 24.90625 48.390625 20.390625 44.140625 
Q 15.875 39.890625 15.1875 32.171875 
z
" id="DejaVuSans-101"/>
       <path d="M 41.109375 46.296875 
Q 39.59375 47.171875 37.8125 47.578125 
Q 36.03125 48 33.890625 48 
Q 26.265625 48 22.1875 43.046875 
Q 18.109375 38.09375 18.109375 28.8125 
L 18.109375 0 
L 9.078125 0 
L 9.078125 54.6875 
L 18.109375 54.6875 
L 18.109375 46.1875 
Q 20.953125 51.171875 25.484375 53.578125 
Q 30.03125 56 36.53125 56 
Q 37.453125 56 38.578125 55.875 
Q 39.703125 55.765625 41.0625 55.515625 
z
" id="DejaVuSans-114"/>
       <path d="M 45.40625 27.984375 
Q 45.40625 37.75 41.375 43.109375 
Q 37.359375 48.484375 30.078125 48.484375 
Q 22.859375 48.484375 18.828125 43.109375 
Q 14.796875 37.75 14.796875 27.984375 
Q 14.796875 18.265625 18.828125 12.890625 
Q 22.859375 7.515625 30.078125 7.515625 
Q 37.359375 7.515625 41.375 12.890625 
Q 45.40625 18.265625 45.40625 27.984375 
z
M 54.390625 6.78125 
Q 54.390625 -7.171875 48.1875 -13.984375 
Q 42 -20.796875 29.203125 -20.796875 
Q 24.46875 -20.796875 20.265625 -20.09375 
Q 16.0625 -19.390625 12.109375 -17.921875 
L 12.109375 -9.1875 
Q 16.0625 -11.328125 19.921875 -12.34375 
Q 23.78125 -13.375 27.78125 -13.375 
Q 36.625 -13.375 41.015625 -8.765625 
Q 45.40625 -4.15625 45.40625 5.171875 
L 45.40625 9.625 
Q 42.625 4.78125 38.28125 2.390625 
Q 33.9375 0 27.875 0 
Q 17.828125 0 11.671875 7.65625 
Q 5.515625 15.328125 5.515625 27.984375 
Q 5.515625 40.671875 11.671875 48.328125 
Q 17.828125 56 27.875 56 
Q 33.9375 56 38.28125 53.609375 
Q 42.625 51.21875 45.40625 46.390625 
L 45.40625 54.6875 
L 54.390625 54.6875 
z
" id="DejaVuSans-103"/>
       <path d="M 20.703125 79.984375 
L 30.421875 79.984375 
L 14.5 61.625 
L 7.03125 61.625 
z
M 9.421875 54.6875 
L 18.40625 54.6875 
L 18.40625 0 
L 9.421875 0 
z
M 13.921875 56 
z
" id="DejaVuSans-237"/>
       <path d="M 28.609375 0 
L 0.78125 72.90625 
L 11.078125 72.90625 
L 34.1875 11.53125 
L 57.328125 72.90625 
L 67.578125 72.90625 
L 39.796875 0 
z
" id="DejaVuSans-86"/>
      </defs>
      <use xlink:href="#DejaVuSans-69"/>
      <use x="63.183594" xlink:href="#DejaVuSans-110"/>
      <use x="126.5625" xlink:href="#DejaVuSans-101"/>
      <use x="188.085938" xlink:href="#DejaVuSans-114"/>
      <use x="227.449219" xlink:href="#DejaVuSans-103"/>
      <use x="290.925781" xlink:href="#DejaVuSans-237"/>
      <use x="318.708984" xlink:href="#DejaVuSans-97"/>
      <use x="379.988281" xlink:href="#DejaVuSans-32"/>
      <use x="411.775391" xlink:href="#DejaVuSans-40"/>
      <use x="450.789062" xlink:href="#DejaVuSans-101"/>
      <use x="512.3125" xlink:href="#DejaVuSans-86"/>
      <use x="580.720703" xlink:href="#DejaVuSans-41"/>
     </g>
    </g>
   </g>
   <g id="line2d_25">
    <path clip-path="url(#p4c67a10fc6)" d="M 262.08 456.175444 
L 279.936 476.332816 
L 297.792 496.656605 
L 315.648 512.259738 
L 333.504 526.986804 
L 351.36 538.579533 
L 369.216 548.400944 
L 387.072 555.536345 
L 404.928 562.795469 
L 422.784 566.972372 
L 440.64 573.619608 
L 458.496 578.205589 
L 476.352 580.069967 
L 494.208 582.376677 
L 512.064 584.409813 
L 529.92 585.922733 
L 547.776 585.462428 
L 565.632 586.602721 
L 583.488 584.842289 
L 601.344 583.193435 
L 619.2 583.370443 
L 637.056 582.558381 
L 654.912 578.90908 
L 672.768 579.838121 
L 690.624 577.839354 
L 708.48 573.788553 
L 726.336 572.619866 
L 744.192 569.488399 
L 762.048 566.189967 
L 779.904 562.918787 
L 797.76 561.722025 
L 815.616 557.083802 
L 833.472 555.551112 
L 851.328 551.243839 
L 869.184 548.340006 
L 887.04 543.36782 
L 904.896 538.97328 
L 922.752 537.534231 
L 940.608 533.618601 
L 958.464 532.334967 
L 976.32 528.453403 
L 994.176 523.058946 
L 1012.032 521.79208 
L 1029.888 517.770294 
L 1047.744 514.605372 
L 1065.6 512.03705 
L 1083.456 505.688027 
L 1101.312 505.024044 
L 1119.168 500.1777 
L 1137.024 497.217806 
L 1154.88 495.57656 
L 1172.736 491.112596 
L 1190.592 485.933172 
L 1208.448 484.974812 
" style="fill:none;stroke:#000000;stroke-linecap:square;stroke-width:1.5;"/>
   </g>
   <g id="line2d_26">
    <path clip-path="url(#p4c67a10fc6)" d="M 128.16 113.322385 
L 137.088 154.651137 
L 146.016 191.056401 
L 154.944 225.30829 
L 163.872 257.656457 
L 172.8 285.192466 
L 181.728 311.150888 
L 190.656 335.177857 
L 199.584 357.985289 
L 208.512 377.789278 
L 217.44 396.797413 
L 226.368 413.973485 
L 235.296 430.371533 
L 244.224 444.888813 
L 253.152 458.889936 
L 262.08 471.679121 
L 271.008 482.806979 
L 279.936 494.605393 
L 297.792 514.580116 
L 306.72 521.814442 
L 315.648 530.207713 
L 324.576 537.770662 
L 351.36 557.155196 
L 360.288 562.02814 
L 369.216 567.257995 
L 378.144 571.315822 
L 387.072 575.204113 
L 396 579.340041 
L 404.928 582.522855 
L 413.856 585.290513 
L 422.784 588.796154 
L 440.64 593.245353 
L 449.568 595.262395 
L 458.496 596.653199 
L 467.424 598.156694 
L 476.352 599.832051 
L 485.28 600.820246 
L 494.208 602.082913 
L 503.136 602.32434 
L 512.064 602.951521 
L 529.92 604.500372 
L 538.848 605.09645 
L 547.776 604.890132 
L 556.704 604.79968 
L 565.632 605.1348 
L 574.56 604.176389 
L 583.488 604.371567 
L 592.416 603.358227 
L 601.344 602.808655 
L 610.272 602.57325 
L 619.2 601.596242 
L 628.128 601.095314 
L 637.056 599.582068 
L 645.984 599.594103 
L 654.912 599.453081 
L 663.84 597.057334 
L 672.768 596.195854 
L 681.696 594.784979 
L 690.624 594.735483 
L 699.552 592.532154 
L 708.48 591.56235 
L 726.336 588.826142 
L 735.264 588.003179 
L 744.192 586.710523 
L 753.12 584.136165 
L 762.048 583.794403 
L 770.976 581.341353 
L 779.904 581.155847 
L 788.832 579.56252 
L 797.76 577.490876 
L 806.688 576.038073 
L 815.616 575.51789 
L 824.544 572.88476 
L 833.472 572.146383 
L 842.4 570.106406 
L 851.328 568.345368 
L 860.256 568.135486 
L 869.184 565.705602 
L 878.112 565.439983 
L 887.04 563.623119 
L 895.968 560.819094 
L 904.896 560.044687 
L 913.824 557.973593 
L 922.752 557.038316 
L 931.68 555.57443 
L 940.608 553.36616 
L 949.536 552.443004 
L 958.464 550.944328 
L 967.392 549.857715 
L 976.32 547.645889 
L 994.176 544.845136 
L 1003.104 542.475744 
L 1012.032 541.306071 
L 1020.96 539.57301 
L 1029.888 538.612546 
L 1038.816 537.429999 
L 1047.744 535.403568 
L 1065.6 534.449637 
L 1074.528 532.012201 
L 1083.456 530.123306 
L 1092.384 529.594711 
L 1101.312 528.935143 
L 1110.24 526.690844 
L 1119.168 525.743672 
L 1128.096 524.183723 
L 1137.024 522.881346 
L 1145.952 522.836624 
L 1154.88 520.342135 
L 1163.808 519.395259 
L 1172.736 517.869162 
L 1181.664 516.632299 
L 1199.52 514.306479 
L 1208.448 513.940299 
L 1217.376 512.500154 
L 1226.304 510.70222 
L 1235.232 509.140311 
L 1244.16 509.887839 
L 1253.088 506.615581 
L 1262.016 506.056519 
L 1270.944 505.776399 
L 1279.872 505.37403 
L 1288.8 503.205653 
L 1297.728 503.282027 
L 1306.656 501.937587 
L 1315.584 500.302216 
L 1324.512 499.450465 
L 1324.512 499.450465 
" style="fill:none;stroke:#ff0000;stroke-linecap:square;stroke-width:1.5;"/>
   </g>
   <g id="line2d_27">
    <path clip-path="url(#p4c67a10fc6)" d="M 375.10218 557.185239 
L 379.803602 558.977386 
L 384.505024 560.684555 
L 389.206446 562.309894 
L 393.907867 563.856421 
L 398.609289 565.32703 
L 403.310711 566.724501 
L 408.012133 568.051498 
L 412.713554 569.310581 
L 417.414977 570.504208 
L 422.116398 571.634736 
L 426.817819 572.704432 
L 431.519242 573.715471 
L 436.220663 574.669946 
L 440.922086 575.569863 
L 445.623507 576.417154 
L 450.324929 577.213673 
L 455.026351 577.961203 
L 459.727773 578.661458 
L 464.429194 579.316085 
L 469.130616 579.926669 
L 473.832038 580.494733 
L 478.533459 581.021742 
L 483.234882 581.509105 
L 487.936303 581.958178 
L 492.637726 582.370265 
L 497.339147 582.74662 
L 502.040568 583.088453 
L 506.741991 583.396924 
L 511.443412 583.673153 
L 516.144834 583.918218 
L 520.846256 584.133156 
L 525.547678 584.318967 
L 530.249099 584.476614 
L 534.950521 584.607023 
L 539.651943 584.71109 
L 544.353365 584.789675 
L 549.054787 584.843611 
L 553.756208 584.873699 
L 558.457631 584.880711 
L 563.159052 584.865393 
L 567.860474 584.828466 
L 572.561896 584.770624 
L 577.263317 584.692538 
L 581.964739 584.594857 
L 586.666161 584.478206 
L 591.367583 584.343191 
L 596.069005 584.190397 
L 600.770427 584.020389 
L 605.471848 583.833715 
L 610.17327 583.630904 
L 614.874692 583.412469 
L 619.576113 583.178904 
L 624.277536 582.930691 
L 628.978957 582.668294 
L 633.680379 582.392164 
L 638.381801 582.102739 
L 643.083223 581.800441 
L 647.784645 581.485681 
L 652.486066 581.158857 
L 657.187488 580.820356 
L 661.88891 580.470553 
L 666.590332 580.109812 
L 671.291753 579.738485 
L 675.993176 579.356917 
L 680.694597 578.965441 
L 685.396019 578.564381 
L 690.097441 578.154051 
L 694.798862 577.734758 
L 699.500285 577.306799 
L 704.201706 576.870463 
L 708.903128 576.426032 
L 713.60455 575.97378 
L 718.305972 575.513973 
L 723.007393 575.04687 
L 727.708815 574.572723 
L 732.410237 574.091778 
L 737.111659 573.604273 
L 741.813081 573.110442 
L 746.514502 572.610511 
L 751.215925 572.1047 
L 755.917346 571.593225 
L 760.618767 571.076294 
L 765.32019 570.554112 
L 770.021611 570.026877 
L 774.723033 569.494783 
L 779.424455 568.958018 
L 784.125877 568.416765 
L 788.827299 567.871204 
L 793.528721 567.321509 
L 798.230142 566.76785 
L 802.931564 566.210392 
L 807.632986 565.649297 
L 812.334407 565.084721 
L 817.03583 564.516818 
L 821.737251 563.945738 
L 826.438673 563.371625 
L 831.140095 562.794621 
L 835.841516 562.214865 
L 840.542939 561.63249 
" style="fill:none;stroke:#0000ff;stroke-linecap:square;stroke-width:1.5;"/>
   </g>
   <g id="line2d_28">
    <path clip-path="url(#p4c67a10fc6)" d="M 128.16 109.7028 
L 137.088 143.627935 
L 146.016 180.746051 
L 154.944 214.360305 
L 163.872 247.220782 
L 172.8 274.851669 
L 181.728 301.538656 
L 190.656 326.202853 
L 199.584 348.034701 
L 208.512 365.416928 
L 217.44 385.721844 
L 226.368 403.137552 
L 235.296 419.647074 
L 244.224 433.312122 
L 253.152 448.575416 
L 262.08 460.163249 
L 271.008 470.680322 
L 279.936 482.160116 
L 288.864 492.251281 
L 297.792 501.050698 
L 306.72 509.217545 
L 315.648 516.477712 
L 324.576 525.83815 
L 333.504 531.771346 
L 342.432 538.860731 
L 351.36 544.276848 
L 360.288 548.816919 
L 369.216 554.469034 
L 378.144 558.731923 
L 387.072 563.442715 
L 396 567.708607 
L 404.928 569.693493 
L 413.856 573.50004 
L 422.784 577.991827 
L 431.712 580.356937 
L 440.64 582.250296 
L 449.568 584.685643 
L 458.496 586.554298 
L 467.424 588.10414 
L 476.352 589.517466 
L 485.28 590.703765 
L 494.208 591.167553 
L 503.136 593.060574 
L 512.064 593.632934 
L 520.992 595.651884 
L 529.92 595.253271 
L 538.848 597.028604 
L 547.776 597.414871 
L 556.704 597.410195 
L 574.56 597.847637 
L 583.488 596.9841 
L 592.416 596.560916 
L 601.344 596.623525 
L 610.272 596.558718 
L 619.2 595.665487 
L 628.128 596.396733 
L 637.056 595.678505 
L 645.984 594.206816 
L 654.912 594.532154 
L 663.84 593.584112 
L 672.768 592.184954 
L 681.696 593.062115 
L 690.624 591.721583 
L 699.552 591.558699 
L 708.48 590.027575 
L 717.408 587.660191 
L 726.336 588.424142 
L 735.264 587.345665 
L 744.192 586.960403 
L 753.12 585.821373 
L 762.048 584.463677 
L 770.976 583.291109 
L 779.904 582.568032 
L 788.832 580.962758 
L 797.76 578.936624 
L 806.688 578.751544 
L 815.616 577.022739 
L 824.544 575.473596 
L 833.472 574.836196 
L 842.4 574.973654 
L 851.328 571.758278 
L 860.256 571.185368 
L 869.184 571.227997 
L 878.112 568.879978 
L 887.04 568.233774 
L 895.968 566.306494 
L 904.896 566.466975 
L 922.752 565.090753 
L 931.68 562.93732 
L 940.608 561.860379 
L 958.464 558.713884 
L 967.392 557.323405 
L 976.32 557.004064 
L 985.248 555.103789 
L 1003.104 553.721101 
L 1012.032 552.891669 
L 1020.96 550.716947 
L 1029.888 549.014661 
L 1038.816 549.025572 
L 1047.744 546.85891 
L 1056.672 547.117994 
L 1065.6 545.841529 
L 1074.528 543.820123 
L 1101.312 540.058358 
L 1110.24 539.926632 
L 1119.168 539.991152 
L 1128.096 538.652198 
L 1137.024 536.028955 
L 1145.952 535.388332 
L 1154.88 534.341841 
L 1163.808 533.501409 
L 1172.736 532.337454 
L 1181.664 531.867264 
L 1190.592 529.111452 
L 1199.52 529.74897 
L 1208.448 529.04015 
L 1217.376 528.072211 
L 1226.304 526.266675 
L 1235.232 525.9315 
L 1244.16 526.323432 
L 1253.088 526.025329 
L 1262.016 523.689489 
L 1270.944 523.216581 
L 1279.872 520.645993 
L 1288.8 520.47298 
L 1297.728 518.886195 
L 1306.656 517.59901 
L 1315.584 519.162682 
L 1324.512 518.691963 
L 1324.512 518.691963 
" style="fill:none;stroke:#008000;stroke-linecap:square;stroke-width:1.5;"/>
   </g>
   <g id="patch_3">
    <path d="M 172.8 629.9064 
L 172.8 84.9312 
" style="fill:none;stroke:#000000;stroke-linecap:square;stroke-linejoin:miter;stroke-width:0.8;"/>
   </g>
   <g id="patch_4">
    <path d="M 1244.16 629.9064 
L 1244.16 84.9312 
" style="fill:none;stroke:#000000;stroke-linecap:square;stroke-linejoin:miter;stroke-width:0.8;"/>
   </g>
   <g id="patch_5">
    <path d="M 172.8 629.9064 
L 1244.16 629.9064 
" style="fill:none;stroke:#000000;stroke-linecap:square;stroke-linejoin:miter;stroke-width:0.8;"/>
   </g>
   <g id="patch_6">
    <path d="M 172.8 84.9312 
L 1244.16 84.9312 
" style="fill:none;stroke:#000000;stroke-linecap:square;stroke-linejoin:miter;stroke-width:0.8;"/>
   </g>
   <g id="legend_1">
    <g id="patch_7">
     <path d="M 1068.86 153.109325 
L 1237.16 153.109325 
Q 1239.16 153.109325 1239.16 151.109325 
L 1239.16 91.9312 
Q 1239.16 89.9312 1237.16 89.9312 
L 1068.86 89.9312 
Q 1066.86 89.9312 1066.86 91.9312 
L 1066.86 151.109325 
Q 1066.86 153.109325 1068.86 153.109325 
z
" style="fill:#ffffff;opacity:0.8;stroke:#cccccc;stroke-linejoin:miter;"/>
    </g>
    <g id="line2d_29">
     <path d="M 1070.86 98.0312 
L 1090.86 98.0312 
" style="fill:none;stroke:#000000;stroke-linecap:square;stroke-width:1.5;"/>
    </g>
    <g id="line2d_30"/>
    <g id="text_15">
     <!-- MO-LCAO($\phi_{1} $) -->
     <g transform="translate(1098.86 101.5312)scale(0.1 -0.1)">
      <defs>
       <path d="M 9.8125 72.90625 
L 24.515625 72.90625 
L 43.109375 23.296875 
L 61.8125 72.90625 
L 76.515625 72.90625 
L 76.515625 0 
L 66.890625 0 
L 66.890625 64.015625 
L 48.09375 14.015625 
L 38.1875 14.015625 
L 19.390625 64.015625 
L 19.390625 0 
L 9.8125 0 
z
" id="DejaVuSans-77"/>
       <path d="M 39.40625 66.21875 
Q 28.65625 66.21875 22.328125 58.203125 
Q 16.015625 50.203125 16.015625 36.375 
Q 16.015625 22.609375 22.328125 14.59375 
Q 28.65625 6.59375 39.40625 6.59375 
Q 50.140625 6.59375 56.421875 14.59375 
Q 62.703125 22.609375 62.703125 36.375 
Q 62.703125 50.203125 56.421875 58.203125 
Q 50.140625 66.21875 39.40625 66.21875 
z
M 39.40625 74.21875 
Q 54.734375 74.21875 63.90625 63.9375 
Q 73.09375 53.65625 73.09375 36.375 
Q 73.09375 19.140625 63.90625 8.859375 
Q 54.734375 -1.421875 39.40625 -1.421875 
Q 24.03125 -1.421875 14.8125 8.828125 
Q 5.609375 19.09375 5.609375 36.375 
Q 5.609375 53.65625 14.8125 63.9375 
Q 24.03125 74.21875 39.40625 74.21875 
z
" id="DejaVuSans-79"/>
       <path d="M 4.890625 31.390625 
L 31.203125 31.390625 
L 31.203125 23.390625 
L 4.890625 23.390625 
z
" id="DejaVuSans-45"/>
       <path d="M 9.8125 72.90625 
L 19.671875 72.90625 
L 19.671875 8.296875 
L 55.171875 8.296875 
L 55.171875 0 
L 9.8125 0 
z
" id="DejaVuSans-76"/>
       <path d="M 64.40625 67.28125 
L 64.40625 56.890625 
Q 59.421875 61.53125 53.78125 63.8125 
Q 48.140625 66.109375 41.796875 66.109375 
Q 29.296875 66.109375 22.65625 58.46875 
Q 16.015625 50.828125 16.015625 36.375 
Q 16.015625 21.96875 22.65625 14.328125 
Q 29.296875 6.6875 41.796875 6.6875 
Q 48.140625 6.6875 53.78125 8.984375 
Q 59.421875 11.28125 64.40625 15.921875 
L 64.40625 5.609375 
Q 59.234375 2.09375 53.4375 0.328125 
Q 47.65625 -1.421875 41.21875 -1.421875 
Q 24.65625 -1.421875 15.125 8.703125 
Q 5.609375 18.84375 5.609375 36.375 
Q 5.609375 53.953125 15.125 64.078125 
Q 24.65625 74.21875 41.21875 74.21875 
Q 47.75 74.21875 53.53125 72.484375 
Q 59.328125 70.75 64.40625 67.28125 
z
" id="DejaVuSans-67"/>
       <path d="M 34.1875 63.1875 
L 20.796875 26.90625 
L 47.609375 26.90625 
z
M 28.609375 72.90625 
L 39.796875 72.90625 
L 67.578125 0 
L 57.328125 0 
L 50.6875 18.703125 
L 17.828125 18.703125 
L 11.1875 0 
L 0.78125 0 
z
" id="DejaVuSans-65"/>
       <path d="M 46.734375 75.984375 
L 42.78125 55.8125 
Q 52.546875 55.8125 57.5625 48.34375 
Q 62.75 40.71875 60.15625 27.296875 
Q 57.515625 13.875 49.359375 6.25 
Q 41.453125 -1.21875 31.6875 -1.21875 
L 27.875 -20.796875 
L 18.953125 -20.796875 
L 22.75 -1.21875 
Q 13.03125 -1.21875 7.953125 6.25 
Q 2.78125 13.875 5.421875 27.296875 
Q 8.015625 40.71875 16.15625 48.34375 
Q 24.125 55.8125 33.84375 55.8125 
L 37.796875 75.984375 
z
M 33.25 6.78125 
Q 38.765625 6.78125 43.5 11.8125 
Q 48.6875 17.4375 50.6875 27.296875 
Q 52.640625 37.0625 49.515625 42.78125 
Q 46.734375 47.796875 41.21875 47.796875 
z
M 24.3125 6.78125 
L 32.28125 47.796875 
Q 26.8125 47.796875 22.078125 42.78125 
Q 16.75 37.0625 14.890625 27.296875 
Q 13.03125 17.4375 16.0625 11.8125 
Q 18.796875 6.78125 24.3125 6.78125 
z
" id="DejaVuSans-Oblique-981"/>
      </defs>
      <use transform="translate(0 0.015625)" xlink:href="#DejaVuSans-77"/>
      <use transform="translate(86.279297 0.015625)" xlink:href="#DejaVuSans-79"/>
      <use transform="translate(164.990234 0.015625)" xlink:href="#DejaVuSans-45"/>
      <use transform="translate(201.074219 0.015625)" xlink:href="#DejaVuSans-76"/>
      <use transform="translate(256.787109 0.015625)" xlink:href="#DejaVuSans-67"/>
      <use transform="translate(326.611328 0.015625)" xlink:href="#DejaVuSans-65"/>
      <use transform="translate(395.019531 0.015625)" xlink:href="#DejaVuSans-79"/>
      <use transform="translate(473.730469 0.015625)" xlink:href="#DejaVuSans-40"/>
      <use transform="translate(512.744141 0.015625)" xlink:href="#DejaVuSans-Oblique-981"/>
      <use transform="translate(578.710938 -16.390625)scale(0.7)" xlink:href="#DejaVuSans-49"/>
      <use transform="translate(625.981445 0.015625)" xlink:href="#DejaVuSans-41"/>
     </g>
    </g>
    <g id="line2d_31">
     <path d="M 1070.86 112.7312 
L 1090.86 112.7312 
" style="fill:none;stroke:#ff0000;stroke-linecap:square;stroke-width:1.5;"/>
    </g>
    <g id="line2d_32"/>
    <g id="text_16">
     <!-- MO-LCAO con Jastrow($\phi_{1}\phi_{j} $) -->
     <g transform="translate(1098.86 116.2312)scale(0.1 -0.1)">
      <defs>
       <path d="M 30.609375 48.390625 
Q 23.390625 48.390625 19.1875 42.75 
Q 14.984375 37.109375 14.984375 27.296875 
Q 14.984375 17.484375 19.15625 11.84375 
Q 23.34375 6.203125 30.609375 6.203125 
Q 37.796875 6.203125 41.984375 11.859375 
Q 46.1875 17.53125 46.1875 27.296875 
Q 46.1875 37.015625 41.984375 42.703125 
Q 37.796875 48.390625 30.609375 48.390625 
z
M 30.609375 56 
Q 42.328125 56 49.015625 48.375 
Q 55.71875 40.765625 55.71875 27.296875 
Q 55.71875 13.875 49.015625 6.21875 
Q 42.328125 -1.421875 30.609375 -1.421875 
Q 18.84375 -1.421875 12.171875 6.21875 
Q 5.515625 13.875 5.515625 27.296875 
Q 5.515625 40.765625 12.171875 48.375 
Q 18.84375 56 30.609375 56 
z
" id="DejaVuSans-111"/>
       <path d="M 9.8125 72.90625 
L 19.671875 72.90625 
L 19.671875 5.078125 
Q 19.671875 -8.109375 14.671875 -14.0625 
Q 9.671875 -20.015625 -1.421875 -20.015625 
L -5.171875 -20.015625 
L -5.171875 -11.71875 
L -2.09375 -11.71875 
Q 4.4375 -11.71875 7.125 -8.046875 
Q 9.8125 -4.390625 9.8125 5.078125 
z
" id="DejaVuSans-74"/>
       <path d="M 4.203125 54.6875 
L 13.1875 54.6875 
L 24.421875 12.015625 
L 35.59375 54.6875 
L 46.1875 54.6875 
L 57.421875 12.015625 
L 68.609375 54.6875 
L 77.59375 54.6875 
L 63.28125 0 
L 52.6875 0 
L 40.921875 44.828125 
L 29.109375 0 
L 18.5 0 
z
" id="DejaVuSans-119"/>
       <path d="M 14.5 54.6875 
L 23.484375 54.6875 
L 12.703125 -0.984375 
L 12.640625 -1.21875 
Q 10.84375 -10.546875 8.5 -14.015625 
Q 6.296875 -17.28125 2.0625 -19.03125 
Q -2.15625 -20.796875 -7.90625 -20.796875 
L -11.28125 -20.796875 
L -9.8125 -13.1875 
L -7.515625 -13.1875 
Q -2.25 -13.1875 -0.015625 -10.984375 
Q 2.203125 -8.796875 3.71875 -0.984375 
z
M 18.703125 75.984375 
L 27.6875 75.984375 
L 25.484375 64.59375 
L 16.5 64.59375 
z
" id="DejaVuSans-Oblique-106"/>
      </defs>
      <use transform="translate(0 0.015625)" xlink:href="#DejaVuSans-77"/>
      <use transform="translate(86.279297 0.015625)" xlink:href="#DejaVuSans-79"/>
      <use transform="translate(164.990234 0.015625)" xlink:href="#DejaVuSans-45"/>
      <use transform="translate(201.074219 0.015625)" xlink:href="#DejaVuSans-76"/>
      <use transform="translate(256.787109 0.015625)" xlink:href="#DejaVuSans-67"/>
      <use transform="translate(326.611328 0.015625)" xlink:href="#DejaVuSans-65"/>
      <use transform="translate(395.019531 0.015625)" xlink:href="#DejaVuSans-79"/>
      <use transform="translate(473.730469 0.015625)" xlink:href="#DejaVuSans-32"/>
      <use transform="translate(505.517578 0.015625)" xlink:href="#DejaVuSans-99"/>
      <use transform="translate(560.498047 0.015625)" xlink:href="#DejaVuSans-111"/>
      <use transform="translate(621.679688 0.015625)" xlink:href="#DejaVuSans-110"/>
      <use transform="translate(685.058594 0.015625)" xlink:href="#DejaVuSans-32"/>
      <use transform="translate(716.845703 0.015625)" xlink:href="#DejaVuSans-74"/>
      <use transform="translate(746.337891 0.015625)" xlink:href="#DejaVuSans-97"/>
      <use transform="translate(807.617188 0.015625)" xlink:href="#DejaVuSans-115"/>
      <use transform="translate(859.716797 0.015625)" xlink:href="#DejaVuSans-116"/>
      <use transform="translate(898.925781 0.015625)" xlink:href="#DejaVuSans-114"/>
      <use transform="translate(940.039062 0.015625)" xlink:href="#DejaVuSans-111"/>
      <use transform="translate(1001.220703 0.015625)" xlink:href="#DejaVuSans-119"/>
      <use transform="translate(1083.007812 0.015625)" xlink:href="#DejaVuSans-40"/>
      <use transform="translate(1122.021484 0.015625)" xlink:href="#DejaVuSans-Oblique-981"/>
      <use transform="translate(1187.988281 -16.390625)scale(0.7)" xlink:href="#DejaVuSans-49"/>
      <use transform="translate(1235.258789 0.015625)" xlink:href="#DejaVuSans-Oblique-981"/>
      <use transform="translate(1301.225586 -16.390625)scale(0.7)" xlink:href="#DejaVuSans-Oblique-106"/>
      <use transform="translate(1323.408203 0.015625)" xlink:href="#DejaVuSans-41"/>
     </g>
    </g>
    <g id="line2d_33">
     <path d="M 1070.86 128.429638 
L 1090.86 128.429638 
" style="fill:none;stroke:#0000ff;stroke-linecap:square;stroke-width:1.5;"/>
    </g>
    <g id="line2d_34"/>
    <g id="text_17">
     <!-- Hartree-Fock -->
     <g transform="translate(1098.86 131.929638)scale(0.1 -0.1)">
      <defs>
       <path d="M 9.8125 72.90625 
L 19.671875 72.90625 
L 19.671875 43.015625 
L 55.515625 43.015625 
L 55.515625 72.90625 
L 65.375 72.90625 
L 65.375 0 
L 55.515625 0 
L 55.515625 34.71875 
L 19.671875 34.71875 
L 19.671875 0 
L 9.8125 0 
z
" id="DejaVuSans-72"/>
       <path d="M 9.8125 72.90625 
L 51.703125 72.90625 
L 51.703125 64.59375 
L 19.671875 64.59375 
L 19.671875 43.109375 
L 48.578125 43.109375 
L 48.578125 34.8125 
L 19.671875 34.8125 
L 19.671875 0 
L 9.8125 0 
z
" id="DejaVuSans-70"/>
       <path d="M 9.078125 75.984375 
L 18.109375 75.984375 
L 18.109375 31.109375 
L 44.921875 54.6875 
L 56.390625 54.6875 
L 27.390625 29.109375 
L 57.625 0 
L 45.90625 0 
L 18.109375 26.703125 
L 18.109375 0 
L 9.078125 0 
z
" id="DejaVuSans-107"/>
      </defs>
      <use xlink:href="#DejaVuSans-72"/>
      <use x="75.195312" xlink:href="#DejaVuSans-97"/>
      <use x="136.474609" xlink:href="#DejaVuSans-114"/>
      <use x="177.587891" xlink:href="#DejaVuSans-116"/>
      <use x="216.796875" xlink:href="#DejaVuSans-114"/>
      <use x="255.660156" xlink:href="#DejaVuSans-101"/>
      <use x="317.183594" xlink:href="#DejaVuSans-101"/>
      <use x="378.707031" xlink:href="#DejaVuSans-45"/>
      <use x="414.791016" xlink:href="#DejaVuSans-70"/>
      <use x="468.685547" xlink:href="#DejaVuSans-111"/>
      <use x="529.867188" xlink:href="#DejaVuSans-99"/>
      <use x="584.847656" xlink:href="#DejaVuSans-107"/>
     </g>
    </g>
    <g id="line2d_35">
     <path d="M 1070.86 143.509325 
L 1090.86 143.509325 
" style="fill:none;stroke:#008000;stroke-linecap:square;stroke-width:1.5;"/>
    </g>
    <g id="line2d_36"/>
    <g id="text_18">
     <!-- Combinación($\phi_{1}+ \lambda \phi_{2} $) -->
     <g transform="translate(1098.86 147.009325)scale(0.1 -0.1)">
      <defs>
       <path d="M 52 44.1875 
Q 55.375 50.25 60.0625 53.125 
Q 64.75 56 71.09375 56 
Q 79.640625 56 84.28125 50.015625 
Q 88.921875 44.046875 88.921875 33.015625 
L 88.921875 0 
L 79.890625 0 
L 79.890625 32.71875 
Q 79.890625 40.578125 77.09375 44.375 
Q 74.3125 48.1875 68.609375 48.1875 
Q 61.625 48.1875 57.5625 43.546875 
Q 53.515625 38.921875 53.515625 30.90625 
L 53.515625 0 
L 44.484375 0 
L 44.484375 32.71875 
Q 44.484375 40.625 41.703125 44.40625 
Q 38.921875 48.1875 33.109375 48.1875 
Q 26.21875 48.1875 22.15625 43.53125 
Q 18.109375 38.875 18.109375 30.90625 
L 18.109375 0 
L 9.078125 0 
L 9.078125 54.6875 
L 18.109375 54.6875 
L 18.109375 46.1875 
Q 21.1875 51.21875 25.484375 53.609375 
Q 29.78125 56 35.6875 56 
Q 41.65625 56 45.828125 52.96875 
Q 50 49.953125 52 44.1875 
z
" id="DejaVuSans-109"/>
       <path d="M 48.6875 27.296875 
Q 48.6875 37.203125 44.609375 42.84375 
Q 40.53125 48.484375 33.40625 48.484375 
Q 26.265625 48.484375 22.1875 42.84375 
Q 18.109375 37.203125 18.109375 27.296875 
Q 18.109375 17.390625 22.1875 11.75 
Q 26.265625 6.109375 33.40625 6.109375 
Q 40.53125 6.109375 44.609375 11.75 
Q 48.6875 17.390625 48.6875 27.296875 
z
M 18.109375 46.390625 
Q 20.953125 51.265625 25.265625 53.625 
Q 29.59375 56 35.59375 56 
Q 45.5625 56 51.78125 48.09375 
Q 58.015625 40.1875 58.015625 27.296875 
Q 58.015625 14.40625 51.78125 6.484375 
Q 45.5625 -1.421875 35.59375 -1.421875 
Q 29.59375 -1.421875 25.265625 0.953125 
Q 20.953125 3.328125 18.109375 8.203125 
L 18.109375 0 
L 9.078125 0 
L 9.078125 75.984375 
L 18.109375 75.984375 
z
" id="DejaVuSans-98"/>
       <path d="M 30.609375 48.390625 
Q 23.390625 48.390625 19.1875 42.75 
Q 14.984375 37.109375 14.984375 27.296875 
Q 14.984375 17.484375 19.15625 11.84375 
Q 23.34375 6.203125 30.609375 6.203125 
Q 37.796875 6.203125 41.984375 11.859375 
Q 46.1875 17.53125 46.1875 27.296875 
Q 46.1875 37.015625 41.984375 42.703125 
Q 37.796875 48.390625 30.609375 48.390625 
z
M 30.609375 56 
Q 42.328125 56 49.015625 48.375 
Q 55.71875 40.765625 55.71875 27.296875 
Q 55.71875 13.875 49.015625 6.21875 
Q 42.328125 -1.421875 30.609375 -1.421875 
Q 18.84375 -1.421875 12.171875 6.21875 
Q 5.515625 13.875 5.515625 27.296875 
Q 5.515625 40.765625 12.171875 48.375 
Q 18.84375 56 30.609375 56 
z
M 37.40625 79.984375 
L 47.125 79.984375 
L 31.203125 61.625 
L 23.734375 61.625 
z
" id="DejaVuSans-243"/>
       <path d="M 46 62.703125 
L 46 35.5 
L 73.1875 35.5 
L 73.1875 27.203125 
L 46 27.203125 
L 46 0 
L 37.796875 0 
L 37.796875 27.203125 
L 10.59375 27.203125 
L 10.59375 35.5 
L 37.796875 35.5 
L 37.796875 62.703125 
z
" id="DejaVuSans-43"/>
       <path d="M 36.71875 67.4375 
L 48.828125 0 
L 39.3125 0 
L 31.84375 40.4375 
L 5.125 0 
L -4.390625 0 
L 29.734375 52.4375 
L 28.03125 62.109375 
Q 26.953125 68.265625 21.734375 68.265625 
L 17.046875 68.265625 
L 18.5 75.984375 
L 24.21875 75.875 
Q 35.203125 75.734375 36.71875 67.4375 
z
" id="DejaVuSans-Oblique-955"/>
      </defs>
      <use transform="translate(0 0.015625)" xlink:href="#DejaVuSans-67"/>
      <use transform="translate(69.824219 0.015625)" xlink:href="#DejaVuSans-111"/>
      <use transform="translate(131.005859 0.015625)" xlink:href="#DejaVuSans-109"/>
      <use transform="translate(228.417969 0.015625)" xlink:href="#DejaVuSans-98"/>
      <use transform="translate(291.894531 0.015625)" xlink:href="#DejaVuSans-105"/>
      <use transform="translate(319.677734 0.015625)" xlink:href="#DejaVuSans-110"/>
      <use transform="translate(383.056641 0.015625)" xlink:href="#DejaVuSans-97"/>
      <use transform="translate(444.335938 0.015625)" xlink:href="#DejaVuSans-99"/>
      <use transform="translate(499.316406 0.015625)" xlink:href="#DejaVuSans-105"/>
      <use transform="translate(527.099609 0.015625)" xlink:href="#DejaVuSans-243"/>
      <use transform="translate(588.28125 0.015625)" xlink:href="#DejaVuSans-110"/>
      <use transform="translate(651.660156 0.015625)" xlink:href="#DejaVuSans-40"/>
      <use transform="translate(690.673828 0.015625)" xlink:href="#DejaVuSans-Oblique-981"/>
      <use transform="translate(756.640625 -16.390625)scale(0.7)" xlink:href="#DejaVuSans-49"/>
      <use transform="translate(823.393555 0.015625)" xlink:href="#DejaVuSans-43"/>
      <use transform="translate(926.665039 0.015625)" xlink:href="#DejaVuSans-Oblique-955"/>
      <use transform="translate(985.844727 0.015625)" xlink:href="#DejaVuSans-Oblique-981"/>
      <use transform="translate(1051.811523 -16.390625)scale(0.7)" xlink:href="#DejaVuSans-50"/>
      <use transform="translate(1099.082031 0.015625)" xlink:href="#DejaVuSans-41"/>
     </g>
    </g>
   </g>
  </g>
  <g id="text_19">
   <!-- Distancia frente a Energía para diferentes funciones de onda -->
   <g transform="translate(508.259062 23.753325)scale(0.12 -0.12)">
    <defs>
     <path d="M 37.109375 75.984375 
L 37.109375 68.5 
L 28.515625 68.5 
Q 23.6875 68.5 21.796875 66.546875 
Q 19.921875 64.59375 19.921875 59.515625 
L 19.921875 54.6875 
L 34.71875 54.6875 
L 34.71875 47.703125 
L 19.921875 47.703125 
L 19.921875 0 
L 10.890625 0 
L 10.890625 47.703125 
L 2.296875 47.703125 
L 2.296875 54.6875 
L 10.890625 54.6875 
L 10.890625 58.5 
Q 10.890625 67.625 15.140625 71.796875 
Q 19.390625 75.984375 28.609375 75.984375 
z
" id="DejaVuSans-102"/>
     <path d="M 18.109375 8.203125 
L 18.109375 -20.796875 
L 9.078125 -20.796875 
L 9.078125 54.6875 
L 18.109375 54.6875 
L 18.109375 46.390625 
Q 20.953125 51.265625 25.265625 53.625 
Q 29.59375 56 35.59375 56 
Q 45.5625 56 51.78125 48.09375 
Q 58.015625 40.1875 58.015625 27.296875 
Q 58.015625 14.40625 51.78125 6.484375 
Q 45.5625 -1.421875 35.59375 -1.421875 
Q 29.59375 -1.421875 25.265625 0.953125 
Q 20.953125 3.328125 18.109375 8.203125 
z
M 48.6875 27.296875 
Q 48.6875 37.203125 44.609375 42.84375 
Q 40.53125 48.484375 33.40625 48.484375 
Q 26.265625 48.484375 22.1875 42.84375 
Q 18.109375 37.203125 18.109375 27.296875 
Q 18.109375 17.390625 22.1875 11.75 
Q 26.265625 6.109375 33.40625 6.109375 
Q 40.53125 6.109375 44.609375 11.75 
Q 48.6875 17.390625 48.6875 27.296875 
z
" id="DejaVuSans-112"/>
     <path d="M 45.40625 46.390625 
L 45.40625 75.984375 
L 54.390625 75.984375 
L 54.390625 0 
L 45.40625 0 
L 45.40625 8.203125 
Q 42.578125 3.328125 38.25 0.953125 
Q 33.9375 -1.421875 27.875 -1.421875 
Q 17.96875 -1.421875 11.734375 6.484375 
Q 5.515625 14.40625 5.515625 27.296875 
Q 5.515625 40.1875 11.734375 48.09375 
Q 17.96875 56 27.875 56 
Q 33.9375 56 38.25 53.625 
Q 42.578125 51.265625 45.40625 46.390625 
z
M 14.796875 27.296875 
Q 14.796875 17.390625 18.875 11.75 
Q 22.953125 6.109375 30.078125 6.109375 
Q 37.203125 6.109375 41.296875 11.75 
Q 45.40625 17.390625 45.40625 27.296875 
Q 45.40625 37.203125 41.296875 42.84375 
Q 37.203125 48.484375 30.078125 48.484375 
Q 22.953125 48.484375 18.875 42.84375 
Q 14.796875 37.203125 14.796875 27.296875 
z
" id="DejaVuSans-100"/>
     <path d="M 8.5 21.578125 
L 8.5 54.6875 
L 17.484375 54.6875 
L 17.484375 21.921875 
Q 17.484375 14.15625 20.5 10.265625 
Q 23.53125 6.390625 29.59375 6.390625 
Q 36.859375 6.390625 41.078125 11.03125 
Q 45.3125 15.671875 45.3125 23.6875 
L 45.3125 54.6875 
L 54.296875 54.6875 
L 54.296875 0 
L 45.3125 0 
L 45.3125 8.40625 
Q 42.046875 3.421875 37.71875 1 
Q 33.40625 -1.421875 27.6875 -1.421875 
Q 18.265625 -1.421875 13.375 4.4375 
Q 8.5 10.296875 8.5 21.578125 
z
M 31.109375 56 
z
" id="DejaVuSans-117"/>
    </defs>
    <use xlink:href="#DejaVuSans-68"/>
    <use x="77.001953" xlink:href="#DejaVuSans-105"/>
    <use x="104.785156" xlink:href="#DejaVuSans-115"/>
    <use x="156.884766" xlink:href="#DejaVuSans-116"/>
    <use x="196.09375" xlink:href="#DejaVuSans-97"/>
    <use x="257.373047" xlink:href="#DejaVuSans-110"/>
    <use x="320.751953" xlink:href="#DejaVuSans-99"/>
    <use x="375.732422" xlink:href="#DejaVuSans-105"/>
    <use x="403.515625" xlink:href="#DejaVuSans-97"/>
    <use x="464.794922" xlink:href="#DejaVuSans-32"/>
    <use x="496.582031" xlink:href="#DejaVuSans-102"/>
    <use x="531.787109" xlink:href="#DejaVuSans-114"/>
    <use x="570.650391" xlink:href="#DejaVuSans-101"/>
    <use x="632.173828" xlink:href="#DejaVuSans-110"/>
    <use x="695.552734" xlink:href="#DejaVuSans-116"/>
    <use x="734.761719" xlink:href="#DejaVuSans-101"/>
    <use x="796.285156" xlink:href="#DejaVuSans-32"/>
    <use x="828.072266" xlink:href="#DejaVuSans-97"/>
    <use x="889.351562" xlink:href="#DejaVuSans-32"/>
    <use x="921.138672" xlink:href="#DejaVuSans-69"/>
    <use x="984.322266" xlink:href="#DejaVuSans-110"/>
    <use x="1047.701172" xlink:href="#DejaVuSans-101"/>
    <use x="1109.224609" xlink:href="#DejaVuSans-114"/>
    <use x="1148.587891" xlink:href="#DejaVuSans-103"/>
    <use x="1212.064453" xlink:href="#DejaVuSans-237"/>
    <use x="1239.847656" xlink:href="#DejaVuSans-97"/>
    <use x="1301.126953" xlink:href="#DejaVuSans-32"/>
    <use x="1332.914062" xlink:href="#DejaVuSans-112"/>
    <use x="1396.390625" xlink:href="#DejaVuSans-97"/>
    <use x="1457.669922" xlink:href="#DejaVuSans-114"/>
    <use x="1498.783203" xlink:href="#DejaVuSans-97"/>
    <use x="1560.0625" xlink:href="#DejaVuSans-32"/>
    <use x="1591.849609" xlink:href="#DejaVuSans-100"/>
    <use x="1655.326172" xlink:href="#DejaVuSans-105"/>
    <use x="1683.109375" xlink:href="#DejaVuSans-102"/>
    <use x="1718.314453" xlink:href="#DejaVuSans-101"/>
    <use x="1779.837891" xlink:href="#DejaVuSans-114"/>
    <use x="1818.701172" xlink:href="#DejaVuSans-101"/>
    <use x="1880.224609" xlink:href="#DejaVuSans-110"/>
    <use x="1943.603516" xlink:href="#DejaVuSans-116"/>
    <use x="1982.8125" xlink:href="#DejaVuSans-101"/>
    <use x="2044.335938" xlink:href="#DejaVuSans-115"/>
    <use x="2096.435547" xlink:href="#DejaVuSans-32"/>
    <use x="2128.222656" xlink:href="#DejaVuSans-102"/>
    <use x="2163.427734" xlink:href="#DejaVuSans-117"/>
    <use x="2226.806641" xlink:href="#DejaVuSans-110"/>
    <use x="2290.185547" xlink:href="#DejaVuSans-99"/>
    <use x="2345.166016" xlink:href="#DejaVuSans-105"/>
    <use x="2372.949219" xlink:href="#DejaVuSans-111"/>
    <use x="2434.130859" xlink:href="#DejaVuSans-110"/>
    <use x="2497.509766" xlink:href="#DejaVuSans-101"/>
    <use x="2559.033203" xlink:href="#DejaVuSans-115"/>
    <use x="2611.132812" xlink:href="#DejaVuSans-32"/>
    <use x="2642.919922" xlink:href="#DejaVuSans-100"/>
    <use x="2706.396484" xlink:href="#DejaVuSans-101"/>
    <use x="2767.919922" xlink:href="#DejaVuSans-32"/>
    <use x="2799.707031" xlink:href="#DejaVuSans-111"/>
    <use x="2860.888672" xlink:href="#DejaVuSans-110"/>
    <use x="2924.267578" xlink:href="#DejaVuSans-100"/>
    <use x="2987.744141" xlink:href="#DejaVuSans-97"/>
   </g>
  </g>
 </g>
 <defs>
  <clipPath id="p4c67a10fc6">
   <rect height="544.9752" width="1071.36" x="172.8" y="84.9312"/>
  </clipPath>
 </defs>
</svg>
